<svg xmlns="http://www.w3.org/2000/svg" width="500" height="393" viewBox="0 0 500 393">
  <g fill="none" fill-rule="evenodd">
    <g fill="#EC008C" transform="translate(1 .235)">
      <polygon points=".116 62.48 15.523 62.48 15.523 78 .116 78"/>
      <polygon points="15.523 46.96 30.93 46.96 30.93 62.48 15.523 62.48"/>
      <polygon points="30.93 31.44 46.337 31.44 46.337 46.96 30.93 46.96"/>
      <polygon points="15.523 15.919 30.93 15.919 30.93 31.44 15.523 31.44"/>
      <polygon points=".116 .399 15.523 .399 15.523 15.919 .116 15.919"/>
      <polygon points="77.152 62.48 92.559 62.48 92.559 78 77.152 78"/>
      <polygon points="92.559 46.96 107.967 46.96 107.967 62.48 92.559 62.48"/>
      <polygon points="107.967 31.44 123.374 31.44 123.374 46.96 107.967 46.96"/>
      <polygon points="92.559 15.919 107.967 15.919 107.967 31.44 92.559 31.44"/>
      <polygon points="77.152 .399 92.559 .399 92.559 15.919 77.152 15.919"/>
    </g>
    <g fill="#161D21" transform="translate(.765 314.235)">
      <polygon points=".435 78 .435 62.48 47.16 62.48 47.16 78"/>
      <polygon points="16.01 15.919 16.01 .399 62.735 .399 62.735 15.919"/>
      <polygon points="16.01 31.44 47.16 31.44 47.16 46.96 16.01 46.96"/>
      <polygon points="47.16 46.96 62.735 46.96 62.735 62.48 47.16 62.48"/>
      <polygon points=".435 15.919 16.01 15.919 16.01 31.44 .435 31.44"/>
      <polygon points="140.61 .399 156.185 .399 156.185 62.48 140.61 62.48"/>
      <polygon points="140.61 78 109.46 78 109.46 62.48 140.61 62.48"/>
      <polygon points="93.885 .399 109.46 .399 109.46 62.48 93.885 62.48"/>
      <polygon points="187.335 78 187.335 .399 202.91 .399 202.91 78"/>
      <polygon points="249.634 78 249.634 .399 265.209 .399 265.209 78"/>
      <polygon points="234.06 15.919 249.634 15.919 249.634 31.44 234.06 31.44"/>
      <polygon points="218.485 31.44 234.06 31.44 234.06 46.96 218.485 46.96"/>
      <polygon points="202.91 15.919 218.485 15.919 218.485 31.44 202.91 31.44"/>
      <polygon points="296.359 78 296.359 .399 311.934 .399 311.934 78"/>
      <polygon points="358.659 78 358.659 .399 374.234 .399 374.234 78"/>
      <polygon points="343.084 15.919 358.659 15.919 358.659 31.44 343.084 31.44"/>
      <polygon points="327.509 31.44 343.084 31.44 343.084 46.96 327.509 46.96"/>
      <polygon points="311.934 15.919 327.509 15.919 327.509 31.44 311.934 31.44"/>
      <polygon points="405.384 78 405.384 .399 420.959 .399 420.959 78"/>
      <polygon points="467.684 78 467.684 15.919 452.109 15.919 452.109 .399 498.834 .399 498.834 15.919 483.259 15.919 483.259 78"/>
    </g>
    <g fill="#161D21" transform="translate(0 157.47)">
      <polygon points="46.875 78 15.708 78 15.708 62.48 46.875 62.48"/>
      <polygon points="15.708 31.44 .124 31.44 .124 15.919 15.708 15.919"/>
      <polygon points="46.875 15.919 15.708 15.919 15.708 .399 46.875 .399"/>
      <polygon points="46.875 62.48 46.875 46.96 15.708 46.96 15.708 31.44 46.875 31.44 46.875 15.919 62.459 15.919 62.459 62.48"/>
      <polygon points="140.378 78 109.21 78 109.21 62.48 140.378 62.48"/>
      <polygon points="109.21 31.44 93.627 31.44 93.627 15.919 109.21 15.919"/>
      <polygon points="140.378 15.919 109.21 15.919 109.21 .399 140.378 .399"/>
      <polygon points="140.378 62.48 140.378 46.96 109.21 46.96 109.21 31.44 140.378 31.44 140.378 15.919 155.962 15.919 155.962 62.48"/>
      <polygon points="233.88 15.919 249.464 15.919 249.464 31.44 233.88 31.44"/>
      <polygon points="233.88 15.919 202.713 15.919 202.713 .399 233.88 .399"/>
      <polygon points="202.713 31.44 233.88 31.44 233.88 46.96 202.713 46.96"/>
      <polygon points="233.88 46.96 249.464 46.96 249.464 62.48 233.88 62.48"/>
      <polygon points="233.88 78 202.713 78 202.713 62.48 233.88 62.48"/>
      <polygon points="187.129 15.919 202.713 15.919 202.713 31.44 187.129 31.44"/>
      <polygon points="187.129 46.96 202.713 46.96 202.713 62.48 187.129 62.48"/>
      <polygon points="280.632 .399 280.632 62.48 311.799 62.48 311.799 78 327.383 78 327.383 62.48 342.967 62.48 342.967 46.96 327.383 46.96 327.383 .399 311.799 .399 311.799 46.96 296.215 46.96 296.215 .399"/>
    </g>
  </g>
</svg>
